<!-- icon666.com - MILLIONS vector ICONS FREE --><svg id="Layer_1" enable-background="new 0 0 91 91" viewBox="0 0 91 91" xmlns="http://www.w3.org/2000/svg"><g><g><g><path d="m44.8 28.3-22.7-2.4c-.4-.1-.8.3-.9.7l-2.4 13c0 1.5 0 6.3 5.4 8l20.3 7.2h.3c.2 0 .3-.1.5-.2.2-.2.4-.4.4-.7v-24.8c-.2-.4-.5-.8-.9-.8z" fill="#87aedc"></path><path d="m68.2 26.5c-.1-.4-.5-.7-.9-.7l-22.7 2.4c-.4 0-.8.4-.8.8v25c0 .3.1.5.4.7.1.1.3.2.5.2h.3l20.3-7.3c3.6-1.5 5.3-4.1 5.3-8.2z" fill="#71a4d8"></path></g><g><g><path d="m88 17.2c-.1-.1-.2-.2-.4-.2l-41-12.3c-1.4-.5-2.4-.5-3.9 0l-41 12.3c-.1 0-.3.1-.4.2-.6.6-.9 1.4-.9 2.3s.3 1.7.9 2.3c.1.1.2.2.4.2l41.1 12.3c.8.2 1.5.3 2.1.3.8 0 1.3-.2 1.8-.3l41-12.3c.1 0 .3-.1.4-.2.6-.6.9-1.4.9-2.3s-.3-1.7-1-2.3z" fill="#9ebce3"></path><path d="m84.2 37.1c-.9 0-1.7-.8-1.7-1.7v-16c0-.9.8-1.7 1.7-1.7s1.7.8 1.7 1.7v16c0 1-.8 1.7-1.7 1.7z" fill="#d2d2d4"></path></g><g fill="#d2d2d4"><path d="m84.2 21.1h-37.1c-.9 0-1.7-.8-1.7-1.7s.8-1.7 1.7-1.7h37.1c.9 0 1.7.8 1.7 1.7s-.8 1.7-1.7 1.7z"></path><path d="m84.2 45c-.2 0-.4 0-.7-.1-.2-.1-.4-.2-.5-.4-.2-.2-.3-.3-.4-.5s-.1-.4-.1-.7c0-.4.2-.9.5-1.2.6-.6 1.8-.6 2.4 0 .3.3.5.8.5 1.2 0 .2 0 .5-.1.7s-.2.4-.4.5c-.2.2-.4.3-.6.4s-.4.1-.6.1z"></path></g></g></g><g><g fill="#d2d2d4"><path d="m44.7 86.7c-10.7 0-21.1-3.9-29.2-11-.8-.7-.8-1.8-.2-2.6.7-.8 1.8-.8 2.6-.2 7.5 6.5 17 10.1 26.8 10.1 9.8 0 19.3-3.6 26.7-10.1.8-.7 1.9-.6 2.6.2s.6 1.9-.2 2.6c-8 7.1-18.4 11-29.1 11z"></path><path d="m44.7 73.8c-6.6 0-13-2.4-18-6.8-.8-.7-.8-1.8-.2-2.6.7-.8 1.8-.8 2.6-.2 4.3 3.8 9.9 5.9 15.6 5.9 5.7 0 11.2-2.1 15.6-5.9.8-.7 1.9-.6 2.6.2s.6 1.9-.2 2.6c-5 4.4-11.4 6.8-18 6.8z"></path><path d="m44.7 86.7c-10.7 0-21-3.9-29.1-11-.8-.7-.8-1.8-.2-2.6.7-.8 1.8-.8 2.6-.2 7.4 6.5 16.9 10.1 26.7 10.1 9.8 0 19.3-3.6 26.8-10.1.8-.7 1.9-.6 2.6.2s.6 1.9-.2 2.6c-8.1 7.1-18.5 11-29.2 11z"></path><path d="m44.7 62.6c-2.9 0-5.7-1.1-7.9-3-.8-.7-.8-1.8-.2-2.6.7-.8 1.8-.8 2.6-.2 1.6 1.4 3.5 2.1 5.5 2.1s3.9-.7 5.5-2.1c.8-.7 1.9-.6 2.6.2s.6 1.9-.2 2.6c-2.2 1.9-5 3-7.9 3z"></path><path d="m44.7 73.8c-6.6 0-13-2.4-18-6.8-.8-.7-.8-1.8-.2-2.6.7-.8 1.8-.8 2.6-.2 4.3 3.8 9.9 5.9 15.6 5.9s11.2-2.1 15.6-5.9c.8-.7 1.9-.6 2.6.2s.6 1.9-.2 2.6c-5 4.4-11.4 6.8-18 6.8z"></path><path d="m44.7 62.6c-2.9 0-5.7-1.1-7.9-3-.8-.7-.8-1.8-.2-2.6.7-.8 1.8-.8 2.6-.2 1.1 1 2.9 2.1 5.5 2.1 2.5 0 4.4-1.1 5.5-2.1.8-.7 1.9-.6 2.6.2s.6 1.9-.2 2.6c-2.2 1.9-5 3-7.9 3z"></path></g><path d="m44.7 51.3c-1.8 0-3.2-1.5-3.2-3.2 0-1.8 1.5-3.2 3.2-3.2 1.8 0 3.2 1.5 3.2 3.2s-1.4 3.2-3.2 3.2zm0-3.4c-.1.1-.1.2 0 .2z" fill="#e6e8ea"></path></g></g></svg>